<svg xmlns="http://www.w3.org/2000/svg" xmlns:xlink="http://www.w3.org/1999/xlink" version="1.1" id="Objects" x="0" y="0" width="269.99" height="163.49" viewBox="0 0 269.99 163.49" enable-background="new 0 0 269.986 163.492" xml:space="preserve">
  <path fill="#E75D3F" d="M101.77 112.84h50.55l10.44 23.32h17.29L134.71 33.42h-3.91L85.63 136.15h19.41l5.22-12.88h33.59l2.45 5.55h-32.45l-5.54 13.05H76.49l51.04-113.99h10.44l51.37 113.99 -30.01 0.16 -10.44-23.65 -42.56-0.16 -5.71 13.7h-7.17L101.77 112.84zM141.72 103.21l-8.97-19.57 -6.03 14.84h-6.36l12.39-29.84 17.94 39.63H103.4l29.35-65.88 40.12 89.37h-6.69l-33.43-75.99 -19.89 47.46H141.72z"/>
</svg>
