<svg id="Layer_1" xmlns="http://www.w3.org/2000/svg" viewBox="-589 338 100 110.3">
  <style>
    .st0{fill:#FFFFFF;}
  </style>
  <path class="st0" d="M-549.9 402.338s-7.9.1-14.6 5.6c-6.7 5.6-11.5 16.7-7 35 .5 2.4 2.9 4 5.4 3.5 2.4-.5 4-2.9 3.5-5.4 0-.1 0-.2-.1-.2-3.9-16.2 0-22.6 4-25.9 4.1-3.4 9-3.6 9-3.6 2.5 0 4.5-2 4.5-4.5s-2-4.5-4.5-4.5h-.2zM-539.1 378.438c-6 0-10.9 4.9-10.9 10.9s4.9 10.9 10.9 10.9 10.9-4.9 10.9-10.9-4.9-10.9-10.9-10.9zm7.4 8.1s1.3 2.4 1.3 3.2c0 .9-.4 1.6-1.3 1.6s-1.4-.7-1.4-1.6c0-.8 1.4-3.2 1.4-3.2z"/>
  <path class="st0" d="M-556.6 408.238s0-6.1 8.8-6.1h17.6c8.8 0 8.8 6.1 8.8 6.1v29h-35.1v-29z"/>
  <path class="st0" d="M-522.9 383.138c-2.5-.1-4.6 1.9-4.7 4.4-.1 1.7.9 3.3 2.3 4.1 8.7 4.9 13.6 8.9 15.6 10.9h-.2c-2.8.6-7.8.6-11.8.3-4-.2-7.1-.7-7.1-.7-2.5-.4-4.8 1.3-5.2 3.7-.4 2.5 1.3 4.8 3.7 5.2h.2s3.4.5 7.8.7 9.6.4 14.2-.5c2.3-.5 4.5-1 6.5-3.1 1-1 1.8-2.6 1.9-4.3.1-1.6-.3-3.2-1-4.4-2.7-5.1-8.5-9.2-20.2-15.9-.5-.2-1.2-.4-2-.4zM-572.8 338.538v36.2h1.2l7.8.1 8.1 12 2.2 3.3v-15.4h50.6v-36.2h-69.9zm2.4 2.5h65.1v31.3h-50.6V382.138l-6.2-9.2-.4-.5h-.6l-7.2-.1v-31.3h-.1z"/>
  <path class="st0" d="M-548.3 344.538c-5.9 0-11.5 5.7-10.2 11.8.4 2.6 1.7 5 3.5 6.8-3.1-.1-6.5-.5-8.8-2.6-4.1-3.9-1.3-12.2 4.1-13.7l-.5-1.7c-6.9 1.9-9.8 11.5-4.9 16.8 0 0 0 .1.1.1l.1.1c3.5 2.3 7.8 3.3 12 3 1.8 1.2 4 2 6.2 2.3 4.5 1.2 9.5 1.1 13.9-.5 4.8.9 9.7.2 14.3-1.1h.2c.6-.3 1.2-.8 1.8-1.1.2-.1.5 0 .8-.1 2.6-.3 5.1-1.3 7.2-2.3l-.8-1.6c-1.6.8-3.3 1.5-5 1.9 3.1-4 3.7-10 .3-14.1-2.2-2.8-6.7-3.2-9.3-.6l-.1.1c-.2.2-.4.3-.6.5-.2-.3-.4-.5-.6-.7-4.6-4-12.3-2.5-15.1 2.8 0 0 0 .1-.1.1-.2.3-.3.5-.5.8-.7-2.7-2.5-5.1-5.3-6.2-1-.7-1.9-.8-2.7-.8zm0 1.8c.7 0 1.3.1 2 .3 2.3.9 3.7 2.9 4.2 5.3s0 5.1-1.5 6.9c-2.3 2.4-5.5 3.8-8.7 4.2-2.3-1.7-3.9-4.2-4.4-7-1.1-4.9 3.6-9.6 8.4-9.7zm17.4.7c1.8 0 3.5.6 4.9 1.7.3.3.5.6.7 1-1.1 1.6-1.7 3.6-1.8 5.6 0 1.5.3 3 .9 4.4-.2.3-.4.5-.6.8-1.7 2-3.8 3.4-6.2 4.4-.9-.2-1.9-.5-2.8-.8-2.2-1.1-3.6-3.2-4.1-5.6-.5-2.4 0-5.1 1.4-7.1v-.1c1.5-2.8 4.6-4.3 7.6-4.3zm12.1.7c1.3.1 2.5.7 3.3 1.6 3.2 3.9 1.9 10.1-1.8 13.3-1.8 0-3.6-.3-5.1-1.4-.7-.4-1.2-1-1.7-1.7.8-1.5 1.4-3.3 1.5-5 .1-1.6-.1-3.3-.7-4.8l.9-.9h.1c1-.8 2.3-1.2 3.5-1.1zm-5.7 4.1c.2.9.2 1.7.2 2.6-.1 1-.3 2-.7 3-.2-.7-.3-1.4-.2-2.2 0-1.1.2-2.3.7-3.4zm-17 7.2c.6 2.8 2.3 5.3 5 6.6.1 0 .2.1.3.1-3.3.7-6.9.6-10.1-.3h-.2c-1.2-.1-2.4-.4-3.6-.9 2.9-.7 5.6-2.2 7.7-4.4.4-.4.7-.8.9-1.1zm16.4 2.3c.5.6 1.1 1.1 1.7 1.5 1 .7 2.1 1.1 3.2 1.4-3.1.8-6.4 1.3-9.6 1.1 1.6-1 3.1-2.2 4.4-3.7l.3-.3z"/>
</svg>