<svg id="Layer_1" xmlns="http://www.w3.org/2000/svg" viewBox="-589 338 100 97.8">
  <style>
    .st0{fill:#FFFFFF;}
  </style>
  <path class="st0" d="M-539 343.5c-24.5 0-44.5 20-44.5 44.5s20 44.5 44.5 44.5 44.5-20 44.5-44.5-20-44.5-44.5-44.5zm0 84c-21.8 0-39.5-17.7-39.5-39.5s17.7-39.5 39.5-39.5 39.5 17.7 39.5 39.5-17.7 39.5-39.5 39.5zm2.5-40.6v-30.1c0-1.4-1.1-2.5-2.5-2.5s-2.5 1.1-2.5 2.5V388c0 .7.3 1.3.8 1.8l17.2 16.5c.5.5 1.1.7 1.7.7.7 0 1.3-.3 1.8-.8 1-1 .9-2.6-.1-3.5l-16.4-15.8z"/>
</svg>